<?xml version="1.0" encoding="UTF-8" standalone="no"?>
<!-- Created with Inkscape (http://www.inkscape.org/) -->

<svg
   xmlns:dc="http://purl.org/dc/elements/1.1/"
   xmlns:cc="http://creativecommons.org/ns#"
   xmlns:rdf="http://www.w3.org/1999/02/22-rdf-syntax-ns#"
   xmlns:svg="http://www.w3.org/2000/svg"
   xmlns="http://www.w3.org/2000/svg"
   xmlns:sodipodi="http://sodipodi.sourceforge.net/DTD/sodipodi-0.dtd"
   xmlns:inkscape="http://www.inkscape.org/namespaces/inkscape"
   width="16px"
   height="16px"
   id="svg2985"
   version="1.1"
   inkscape:version="0.48.4 r9939"
   sodipodi:docname="anterior.svg">
  <defs
     id="defs2987" />
  <sodipodi:namedview
     id="base"
     pagecolor="#ffffff"
     bordercolor="#666666"
     borderopacity="1.0"
     inkscape:pageopacity="0.0"
     inkscape:pageshadow="2"
     inkscape:zoom="22.197802"
     inkscape:cx="0.8526753"
     inkscape:cy="8.1405527"
     inkscape:current-layer="layer1"
     showgrid="true"
     inkscape:grid-bbox="true"
     inkscape:document-units="px"
     inkscape:window-width="1366"
     inkscape:window-height="705"
     inkscape:window-x="-8"
     inkscape:window-y="-8"
     inkscape:window-maximized="1"
     inkscape:object-paths="true"
     inkscape:snap-midpoints="false"
     inkscape:snap-nodes="true"
     inkscape:snap-intersection-paths="true"
     inkscape:snap-smooth-nodes="false"
     inkscape:snap-bbox="true"
     inkscape:snap-global="true"
     inkscape:snap-grids="false"
     inkscape:snap-to-guides="false"
     inkscape:object-nodes="false" />
  <metadata
     id="metadata2990">
    <rdf:RDF>
      <cc:Work
         rdf:about="">
        <dc:format>image/svg+xml</dc:format>
        <dc:type
           rdf:resource="http://purl.org/dc/dcmitype/StillImage" />
        <dc:title></dc:title>
      </cc:Work>
    </rdf:RDF>
  </metadata>
  <g
     id="layer1"
     inkscape:label="Layer 1"
     inkscape:groupmode="layer">
    <path
       sodipodi:type="arc"
       style="fill:none;stroke:#aa0000"
       id="path2995"
       sodipodi:cx="8.1314354"
       sodipodi:cy="8.1613865"
       sodipodi:rx="7.0952969"
       sodipodi:ry="6.9826732"
       d="m 15.226732,8.1613865 a 7.0952969,6.9826732 0 1 1 -14.1905935,0 7.0952969,6.9826732 0 1 1 14.1905935,0 z"
       transform="translate(-0.16113769,-0.36230592)"
       inkscape:export-filename="C:\Users\familia\Desktop\Nueva carpeta (5)\DeckPlayer-master\src\dj\Imagenes\anterior_1.png"
       inkscape:export-xdpi="191.9615"
       inkscape:export-ydpi="191.9615" />
    <path
       style="fill:none;stroke:#aa0000;stroke-width:0.04504951"
       d="M 7.4199019,15.228701 C 4.5443818,15.039908 1.9396902,13.134978 0.9066283,10.465244 0.3456779,9.0155847 0.2587156,7.3792547 0.6632266,5.8852683 1.3600085,3.3118331 3.4487878,1.2550511 6.0364406,0.59436468 c 0.9450179,-0.2412845 2.1913246,-0.307395 3.0728177,-0.162998 1.8914247,0.3098335 3.5074067,1.21732142 4.6928897,2.63538702 0.876493,1.0484549 1.4148,2.2182507 1.643598,3.5717032 0.08852,0.52365 0.09921,1.6837798 0.02025,2.1975538 -0.250843,1.6320963 -0.982515,3.0681933 -2.149788,4.2195183 -1.571254,1.549786 -3.6608521,2.31994 -5.8963021,2.173172 z m 1.5558329,-1.00633 c 1.4387772,-0.235928 2.5935672,-0.803966 3.6193162,-1.780333 0.773836,-0.736582 1.318727,-1.60103 1.655341,-2.6261343 0.226932,-0.691086 0.316525,-1.261724 0.316525,-2.016031 0,-0.7541553 -0.08959,-1.3249356 -0.31635,-2.0155004 C 13.916091,4.7657815 13.460759,4.0348156 12.671351,3.2491856 11.771232,2.3533748 10.79492,1.8003706 9.5822779,1.4994688 8.5364494,1.2399595 7.3141171,1.2452038 6.2781695,1.5136447 5.0149034,1.8409898 3.8205034,2.5744816 2.9741158,3.542694 2.2166679,4.4091651 1.7327971,5.373287 1.487692,6.5044211 1.404492,6.8883816 1.3875737,7.1072875 1.3875737,7.7998727 c 0,0.941484 0.076772,1.416411 0.3517679,2.176098 0.794839,2.1957783 2.7274935,3.8076953 5.0570292,4.2177813 0.5981592,0.105298 1.6291784,0.118838 2.179364,0.02862 z"
       id="path2997"
       inkscape:connector-curvature="0"
       inkscape:export-filename="C:\Users\familia\Desktop\Nueva carpeta (5)\DeckPlayer-master\src\dj\Imagenes\anterior_1.png"
       inkscape:export-xdpi="191.9615"
       inkscape:export-ydpi="191.9615" />
    <path
       style="fill:none;stroke:#aa0000;stroke-width:0.04504951"
       d="M 7.4199019,15.228701 C 4.4328926,15.032589 1.7584322,12.994337 0.8051621,10.187496 0.5011717,9.2924167 0.4395543,8.8900197 0.4395543,7.7998727 c 0,-0.8389109 0.013718,-1.0318841 0.1024795,-1.4415846 0.6874637,-3.1731603 3.1840124,-5.49116852 6.4048483,-5.94680642 0.5993449,-0.084787 1.6898214,-0.065384 2.2975248,0.04088 2.7652591,0.483536 5.0438281,2.41377342 5.9021581,4.99987862 0.327262,0.9860228 0.446185,1.9398808 0.363087,2.9122588 -0.06199,0.725437 -0.145815,1.132313 -0.370468,1.7982979 -1.088088,3.225638 -4.240282,5.294317 -7.7192821,5.065904 z M 8.8803208,14.238654 C 11.879864,13.74957 14.046884,11.628937 14.516228,8.7233877 14.587798,8.2803447 14.578498,7.2672975 14.498448,6.7862584 14.220201,5.114224 13.318009,3.6392079 11.940895,2.60486 11.531372,2.2972676 10.700385,1.8598232 10.190447,1.6833971 8.9352312,1.2491232 7.6065519,1.1928802 6.2936643,1.5184463 4.171608,2.0446679 2.3808299,3.7058914 1.6826853,5.7958423 c -0.8680825,2.5986724 0.06774,5.5074907 2.3134542,7.1909097 0.868518,0.651053 1.7618397,1.015319 3.0633664,1.249133 0.3227004,0.05797 1.4715407,0.05972 1.8208149,0.0028 l 0,-2e-6 z"
       id="path2999"
       inkscape:connector-curvature="0"
       inkscape:export-filename="C:\Users\familia\Desktop\Nueva carpeta (5)\DeckPlayer-master\src\dj\Imagenes\anterior_1.png"
       inkscape:export-xdpi="191.9615"
       inkscape:export-ydpi="191.9615" />
    <a
       transform="translate(-0.11608818,-0.13705832)"
       id="a3221"
       style="stroke:#aa0000"
       inkscape:export-filename="C:\Users\familia\Desktop\Nueva carpeta (5)\DeckPlayer-master\src\dj\Imagenes\anterior_1.png"
       inkscape:export-xdpi="191.9615"
       inkscape:export-ydpi="191.9615">
      <path
         transform="matrix(0.55406959,-0.00803743,0.00551835,0.80699651,4.0570825,4.176936)"
         style="fill:none;stroke:#aa0000"
         inkscape:transform-center-x="1.1432375"
         inkscape:transform-center-y="0.013103118"
         d="M 7.7485146,12.035644 1.567045,8.3515467 -4.6144249,4.6674493 1.6668316,1.1561882 7.9480885,-2.3550731 7.9231415,-0.55623352 7.849999,0.49672475 0.53747991,4.8663884 7.4797449,9.1908606 z"
         id="path3001"
         inkscape:connector-curvature="0"
         sodipodi:nodetypes="cccccccccc" />
    </a>
    <path
       sodipodi:type="star"
       style="fill:none;stroke:#aa0000"
       id="path3001-1"
       sodipodi:sides="3"
       sodipodi:cx="3.6940594"
       sodipodi:cy="4.7826734"
       sodipodi:r1="8.3092833"
       sodipodi:r2="4.1546416"
       sodipodi:arg1="1.0610649"
       sodipodi:arg2="2.1082624"
       inkscape:flatsided="false"
       inkscape:rounded="0"
       inkscape:randomized="0"
       d="M 7.7485146,12.035644 1.567045,8.3515467 -4.6144249,4.6674493 1.6668316,1.1561882 7.9480885,-2.3550731 7.8483015,4.8402852 z"
       inkscape:transform-center-x="1.1010057"
       inkscape:transform-center-y="0.013017914"
       transform="matrix(0.53360196,-0.00798519,0.0053145,0.80175113,6.6918068,4.1161949)"
       inkscape:export-filename="C:\Users\familia\Desktop\Nueva carpeta (5)\DeckPlayer-master\src\dj\Imagenes\anterior_1.png"
       inkscape:export-xdpi="191.9615"
       inkscape:export-ydpi="191.9615" />
  </g>
</svg>
